<svg fill="#0e173b" xmlns="http://www.w3.org/2000/svg" xmlns:xlink="http://www.w3.org/1999/xlink" version="1.1" x="0px" y="0px" viewBox="0 0 66 82.5" enable-background="new 0 0 66 66" xml:space="preserve">
<g>
<path d="M51.2,38.9h8.3c0.6,0,1-0.4,1-1v-4c0-0.2-0.1-0.4-0.2-0.6L56,27.9c-0.2-0.2-0.5-0.4-0.8-0.4h-4c-0.6,0-1,0.4-1,1v9.4   C50.2,38.5,50.7,38.9,51.2,38.9z M52.2,29.6h2.5l3.8,4.8v2.6h-6.3V29.6z"/>
<path d="M64.3,32l-6.3-8c-0.2-0.2-0.5-0.4-0.8-0.4h-9v-4.5c0-1.9-1.5-3.4-3.4-3.4v2c0.8,0,1.4,0.6,1.4,1.4v5.5h0c0,0,0,0,0,0v13   H36.1H10.6H1.5v2h1.8v6.3c0,0.6,0.4,1,1,1h4.8c0.5,2,2.3,3.6,4.4,3.6c1.8,0,3.4-1.1,4.1-2.6c0.7,1.5,2.3,2.6,4.1,2.6   c2.2,0,4-1.5,4.4-3.6c6.1,0,21.3,0,24.7,0c0.5,2,2.3,3.6,4.4,3.6s4-1.5,4.4-3.6h3.7c0.6,0,1-0.4,1-1V32.6   C64.5,32.4,64.4,32.2,64.3,32z M16.1,45.8c0,1.4-1.1,2.5-2.6,2.5c-1.4,0-2.6-1.1-2.6-2.5c0-1.4,1.2-2.6,2.6-2.6   C14.9,43.2,16.1,44.4,16.1,45.8L16.1,45.8z M24.3,45.8c0,1.4-1.2,2.5-2.6,2.5c-1.4,0-2.6-1.1-2.6-2.6c0-1.4,1.1-2.6,2.6-2.6   C23.1,43.2,24.3,44.4,24.3,45.8C24.3,45.9,24.3,45.9,24.3,45.8z M46.2,44.8c-16.2,0-19.7,0-20.1,0c-0.5-2-2.3-3.6-4.4-3.6   c-1.8,0-3.4,1.1-4.1,2.6c-0.7-1.5-2.3-2.6-4.1-2.6c-2.2,0-4,1.5-4.4,3.6H5.3v-5.3h40.9V44.8z M57.9,45.8c0,1.4-1.2,2.5-2.6,2.5   s-2.6-1.1-2.6-2.5c0-1.4,1.2-2.6,2.6-2.6C56.8,43.2,57.9,44.4,57.9,45.8C57.9,45.9,57.9,45.9,57.9,45.8z M62.5,44.8h-2.7   c-0.5-2-2.3-3.6-4.4-3.6c-2.2,0-4,1.5-4.4,3.6h-2.7V25.6h8.5l5.8,7.4V44.8z"/><path d="M14.2,34.8h18.3c0.4,1.6,1.9,2.8,3.6,2.8s3.2-1.2,3.6-2.8h2.4c0.6,0,1-0.4,1-1v-4.5c0-1-0.7-1.8-1.6-1.9l-7.9-1.6l-3.4-5.3   c-0.7-1.1-1.9-1.8-3.3-1.8c-4,0-7.2,0-11.2,0c-1.3,0-2.5,0.7-3.3,1.8l-3.4,5.2H7.5c-2.1,0-3.9,1.7-3.9,3.9v4.3c0,0.6,0.4,1,1,1H7   c0.4,1.6,1.9,2.8,3.6,2.8S13.8,36.4,14.2,34.8z M36.1,35.5c-1,0-1.8-0.8-1.8-1.8c0-1,0.8-1.8,1.8-1.8s1.8,0.8,1.8,1.8   C37.9,34.7,37.1,35.5,36.1,35.5z M28.5,21.5L28.5,21.5l2.7,4.2h-9.7v-5h5.5C27.5,20.6,28.1,20.9,28.5,21.5z M14.1,21.5   c0.3-0.5,0.9-0.9,1.6-0.9h3.7v5h-8L14.1,21.5z M5.6,29.5c0-1,0.8-1.9,1.9-1.9c9.1,0,16.6,0,25.4,0l8.2,1.6v3.5h-1.3   c-0.5-1.6-2-2.8-3.6-2.8c-1.7,0-3.2,1.1-3.6,2.8H14.3c-0.5-1.7-2-2.8-3.6-2.8C9,30,7.4,31.1,7,32.8H5.6V29.5z M10.6,35.5   c-1,0-1.8-0.8-1.8-1.8c0-1,0.8-1.8,1.8-1.8s1.8,0.8,1.8,1.8C12.4,34.7,11.6,35.5,10.6,35.5z"/><rect x="19.4" y="29" width="2.1" height="2"/></g>
</svg>